#!OML:ASF H:\MichaelJackson\Top Level 1\Subject 1\Session 1\male.ASF
:FULLY-SPECIFIED
:DEGREES
1649
root -6.85269 16.9551 18.8851 -335.535 50.546 11.6325
lowerback 4.43756 1.50816 -9.06509
upperback 0.738822 1.58023 -0.642002
thorax -1.95129 0.853871 4.31811
lowerneck -8.67294 -9.7339 -5.12027
upperneck 12.8465 -13.1315 5.12568
head 5.99054 -6.25929 1.3527
rclavicle -1.40541e-013 2.34566e-014
rhumerus -13.1242 4.15543 -83.9315
rradius 95.3042
rwrist -53.3994
rhand -16.9305 -25.3458
rfingers 7.12502
rthumb 9.30242 -55.1206
lclavicle -1.40541e-013 2.34566e-014
lhumerus -82.6884 -15.4643 100.404
lradius 97.2823
lwrist 27.5697
lhand -13.1915 20.0423
lfingers 7.12502
lthumb 12.9086 49.623
rfemur -57.8859 -7.93756 11.8858
rtibia 45.3599
rfoot 21.5263 1.27436
rtoes 7.92153
lfemur -26.8514 10.5833 -33.318
ltibia 33.3208
lfoot -14.4726 -25.2879
ltoes 47.5044
1650
root -6.83737 16.9484 18.9105 -335.245 50.5795 11.7244
lowerback 4.55762 1.53983 -8.95601
upperback 0.714698 1.61269 -0.662771
thorax -2.04501 0.873777 4.23009
lowerneck -8.65934 -9.69771 -5.01499
upperneck 12.794 -13.0825 5.04652
head 5.95653 -6.23748 1.31994
rclavicle 3.22031e-014 1.70955e-014
rhumerus -13.1505 4.04698 -83.8408
rradius 95.037
rwrist -52.6064
rhand -17.6929 -25.8258
rfingers 7.12502
rthumb 8.56669 -55.632
lclavicle 3.22031e-014 1.70955e-014
lhumerus -82.8734 -15.477 100.578
lradius 97.4714
lwrist 27.4067
lhand -14.0631 20.3382
lfingers 7.12502
lthumb 12.0683 49.9702
rfemur -58.1059 -8.054 11.9115
rtibia 45.591
rfoot 21.1023 1.53976
rtoes 7.17138
lfemur -27.0102 10.8002 -33.3675
ltibia 33.3695
lfoot -14.3356 -25.8156
ltoes 47.8631
1651
root -6.82394 16.9448 18.9369 -335.016 50.6034 11.7467
lowerback 4.65302 1.53778 -8.90555
upperback 0.715545 1.6028 -0.615433
thorax -2.09634 0.870541 4.24987
lowerneck -8.71206 -9.62962 -4.98965
upperneck 12.7484 -12.9774 4.96668
head 5.93847 -6.19094 1.30047
rclavicle 3.47873e-014 1.63003e-014
rhumerus -13.1555 3.99473 -83.7602
rradius 94.9114
rwrist -52.0007
rhand -17.6462 -25.6349
rfingers 7.12502
rthumb 8.61173 -55.4393
lclavicle 3.47873e-014 1.63003e-014
lhumerus -82.958 -15.3576 100.748
lradius 97.6381
lwrist 27.3663
lhand -15.0595 20.5297
lfingers 7.12502
lthumb 11.1074 50.2157
rfemur -58.3132 -8.0732 11.946
rtibia 45.8205
rfoot 20.728 1.55658
rtoes 7.07992
lfemur -27.1506 11.0999 -33.3787
ltibia 33.3926
lfoot -14.2858 -26.3377
ltoes 48.0323
1652
root -6.80981 16.9371 18.9627 -334.773 50.5259 11.8531
lowerback 4.78579 1.60321 -8.90889
upperback 0.726967 1.6759 -0.626699
thorax -2.16897 0.909548 4.23164
lowerneck -8.64596 -9.61083 -4.92186
upperneck 12.5869 -12.9519 4.94125
head 5.86884 -6.18179 1.2924
rclavicle -5.50634e-014 1.23246e-014
rhumerus -13.2715 3.7224 -83.7447
rradius 95.0298
rwrist -51.7743
rhand -17.1655 -25.4098
rfingers 7.12502
rthumb 9.07566 -55.1945
lclavicle -5.50634e-014 1.23246e-014
lhumerus -83.0739 -15.3718 100.969
lradius 97.8097
lwrist 27.3641
lhand -15.5607 20.602
lfingers 7.12502
lthumb 10.6239 50.3135
rfemur -58.524 -8.18053 12.0026
rtibia 46.0588
rfoot 20.3834 1.67542
rtoes 7.31294
lfemur -27.246 11.4746 -33.5082
ltibia 33.4091
lfoot -14.4953 -26.6895
ltoes 47.7673
1653
root -6.79703 16.9297 18.9871 -334.464 50.4762 12.0023
lowerback 4.89961 1.67035 -8.91073
upperback 0.726318 1.75229 -0.661382
thorax -2.2432 0.950556 4.18782
lowerneck -8.64584 -9.60176 -4.79367
upperneck 12.4533 -12.9439 4.89299
head 5.81456 -6.17816 1.26294
rclavicle 4.90998e-014 1.19271e-014
rhumerus -13.4364 3.58899 -83.6302
rradius 95.3666
rwrist -52.1673
rhand -16.8235 -24.9728
rfingers 7.12502
rthumb 9.40563 -54.7429
lclavicle 4.90998e-014 1.19271e-014
lhumerus -83.1671 -15.4577 101.126
lradius 97.9921
lwrist 27.4214
lhand -16.1821 20.6767
lfingers 7.12502
lthumb 10.0245 50.4179
rfemur -58.7552 -8.3049 12.0381
rtibia 46.3001
rfoot 19.9933 1.8429
rtoes 6.89441
lfemur -27.3576 11.6684 -33.6281
ltibia 33.4112
lfoot -14.5797 -27.0476
ltoes 47.7939
1654
root -6.78278 16.9253 19.0117 -334.252 50.428 12.1204
lowerback 5.06686 1.71253 -8.84965
upperback 0.748586 1.79455 -0.697117
thorax -2.31669 0.973329 4.10922
lowerneck -8.61524 -9.58059 -4.71819
upperneck 12.2835 -12.9162 4.87596
head 5.74851 -6.16667 1.25492
rclavicle 1.39149e-014 2.14687e-014
rhumerus -13.5551 3.41363 -83.6468
rradius 95.7708
rwrist -52.5845
rhand -16.5663 -24.5187
rfingers 7.12502
rthumb 9.65381 -54.2775
lclavicle 1.39149e-014 2.14687e-014
lhumerus -83.213 -15.4679 101.194
lradius 98.1085
lwrist 27.4513
lhand -16.3943 20.5128
lfingers 7.12502
lthumb 9.81971 50.2639
rfemur -58.8814 -8.4014 12.064
rtibia 46.55
rfoot 19.5647 1.95999
rtoes 7.03492
lfemur -27.3549 11.6399 -33.6399
ltibia 33.4165
lfoot -14.6444 -27.2328
ltoes 48.1213
1655
root -6.76905 16.9164 19.0367 -333.98 50.3897 12.2768
lowerback 5.17935 1.69192 -8.92241
upperback 0.76724 1.75309 -0.652521
thorax -2.35818 0.954599 4.19729
lowerneck -8.62775 -9.51043 -4.77463
upperneck 12.1628 -12.8054 4.86137
head 5.70999 -6.11871 1.2713
rclavicle 5.52621e-014 -2.38542e-015
rhumerus -13.5964 3.49709 -83.6788
rradius 96.1239
rwrist -52.7467
rhand -16.2683 -24.1918
rfingers 7.12502
rthumb 9.94136 -53.937
lclavicle 5.52621e-014 -2.38542e-015
lhumerus -83.222 -15.2982 101.324
lradius 98.2596
lwrist 27.4865
lhand -16.5983 20.5178
lfingers 7.12502
lthumb 9.62298 50.278
rfemur -59.0297 -8.48869 12.0594
rtibia 46.8044
rfoot 19.0235 2.15782
rtoes 6.35473
lfemur -27.4069 11.7148 -33.7353
ltibia 33.4405
lfoot -14.8227 -27.4841
ltoes 48.2659
1656
root -6.75358 16.9061 19.0643 -333.767 50.3464 12.3445
lowerback 5.24127 1.70369 -8.88635
upperback 0.76864 1.76423 -0.647386
thorax -2.39213 0.961129 4.18008
lowerneck -8.56111 -9.48251 -4.71599
upperneck 12.0048 -12.7624 4.80368
head 5.63936 -6.10361 1.25632
rclavicle -1.13108e-013 8.74653e-015
rhumerus -13.6899 3.52124 -83.7173
rradius 96.4481
rwrist -52.5227
rhand -16.1905 -23.7389
rfingers 7.12502
rthumb 10.0164 -53.4806
lclavicle -1.13108e-013 8.74653e-015
lhumerus -83.2884 -15.2896 101.439
lradius 98.4032
lwrist 27.5327
lhand -16.6664 20.5547
lfingers 7.12502
lthumb 9.55721 50.318
rfemur -59.1625 -8.5028 12.0659
rtibia 47.0643
rfoot 18.3818 2.3537
rtoes 5.29524
lfemur -27.4983 11.9289 -33.8133
ltibia 33.4881
lfoot -15.0214 -27.8234
ltoes 48.3462
1657
root -6.73583 16.8948 19.0921 -333.603 50.3383 12.3369
lowerback 5.2338 1.66537 -8.80645
upperback 0.786685 1.72025 -0.606741
thorax -2.36192 0.936826 4.18198
lowerneck -8.57568 -9.40884 -4.68952
upperneck 11.9113 -12.653 4.7423
head 5.6014 -6.05513 1.24538
rclavicle -6.91771e-014 7.15625e-015
rhumerus -13.6578 3.75591 -83.7528
rradius 96.6306
rwrist -52.0727
rhand -16.182 -23.4543
rfingers 7.12502
rthumb 10.0246 -53.1955
lclavicle -6.91771e-014 7.15625e-015
lhumerus -83.2224 -15.1728 101.498
lradius 98.4621
lwrist 27.5626
lhand -16.7088 20.5822
lfingers 7.12502
lthumb 9.51628 50.3473
rfemur -59.2663 -8.50324 12.1037
rtibia 47.3179
rfoot 17.6139 2.67922
rtoes 3.97097
lfemur -27.5861 12.0508 -33.8122
ltibia 33.5533
lfoot -15.3002 -28.0851
ltoes 48.4709
1658
root -6.71782 16.8821 19.1227 -333.438 50.3595 12.3705
lowerback 5.24986 1.60311 -8.77019
upperback 0.780572 1.63834 -0.555001
thorax -2.36651 0.89621 4.22197
lowerneck -8.57076 -9.34379 -4.71197
upperneck 11.89 -12.5537 4.69069
head 5.58714 -6.0118 1.24286
rclavicle -1.86858e-014 7.95139e-016
rhumerus -13.6265 3.84493 -83.8874
rradius 96.726
rwrist -51.583
rhand -16.1135 -23.3298
rfingers 7.12502
rthumb 10.0906 -53.0679
lclavicle -1.86858e-014 7.95139e-016
lhumerus -83.2015 -15.0453 101.602
lradius 98.483
lwrist 27.5312
lhand -16.8915 20.5877
lfingers 7.12502
lthumb 9.34001 50.3608
rfemur -59.2966 -8.51801 12.0924
rtibia 47.5718
rfoot 16.7981 2.91014
rtoes 3.01816
lfemur -27.6231 12.0599 -33.7809
ltibia 33.6465
lfoot -15.5463 -28.3039
ltoes 48.7485
